<?xml version="1.0" encoding="UTF-8" standalone="no"?>
<!DOCTYPE svg PUBLIC "-//W3C//DTD SVG 1.1//EN" "http://www.w3.org/Graphics/SVG/1.1/DTD/svg11.dtd">
<svg width="100%" height="100%" viewBox="0 0 1024 1024" version="1.1" xmlns="http://www.w3.org/2000/svg" xmlns:xlink="http://www.w3.org/1999/xlink" xml:space="preserve" xmlns:serif="http://www.serif.com/" style="fill-rule:evenodd;clip-rule:evenodd;stroke-linecap:round;stroke-linejoin:round;stroke-miterlimit:1.5;">
    <rect id="Artboard1" x="0" y="0" width="1024" height="1024" style="fill:none;"/>
    <g id="Artboard11" serif:id="Artboard1">
        <path d="M1024,25.664c0,-14.164 -11.5,-25.664 -25.664,-25.664l-972.672,0c-14.164,0 -25.664,11.5 -25.664,25.664l0,972.672c0,14.164 11.5,25.664 25.664,25.664l972.672,0c14.164,0 25.664,-11.5 25.664,-25.664l0,-972.672Z" style="fill:#3b4b9c;"/>
        <g>
            <path d="M267.925,837.85c-8.867,-0 -15.283,-1.42 -19.25,-4.259c-3.967,-2.839 -5.95,-7.641 -5.95,-14.408c-0,-5.6 1.439,-13.378 4.317,-23.333c3.033,-10.578 6.202,-18.667 9.508,-24.267c3.306,-5.6 7.389,-9.547 12.25,-11.842c4.861,-2.294 11.258,-3.441 19.192,-3.441c5.677,-0 10.208,0.389 13.591,1.166c3.384,0.778 5.873,2.1 7.467,3.967c1.594,1.867 2.392,4.472 2.392,7.817c-0,2.489 -0.506,5.872 -1.517,10.15l-14,-0c0.156,-1.867 0.233,-3.073 0.233,-3.617c0,-2.644 -0.602,-4.433 -1.808,-5.367c-1.206,-0.933 -3.442,-1.4 -6.708,-1.4c-4.589,0 -8.439,0.914 -11.55,2.742c-3.111,1.828 -5.834,4.861 -8.167,9.1c-2.333,4.239 -4.589,10.169 -6.767,17.792c-2.333,8.244 -3.5,14.116 -3.5,17.616c0,3.267 0.836,5.561 2.509,6.884c1.672,1.322 4.375,1.983 8.108,1.983c4.9,-0 8.672,-0.836 11.317,-2.508c2.644,-1.673 4.9,-4.531 6.766,-8.575l14.35,-0c-2.177,6.144 -4.53,10.908 -7.058,14.291c-2.528,3.384 -5.794,5.814 -9.8,7.292c-4.006,1.478 -9.314,2.217 -15.925,2.217Z" style="fill:#dfe1ec;fill-rule:nonzero;"/>
            <path d="M329.175,837.85c-6.767,-0 -11.608,-0.836 -14.525,-2.509c-2.917,-1.672 -4.375,-4.53 -4.375,-8.575c-0,-2.566 0.506,-5.6 1.517,-9.1c1.633,-5.6 3.694,-9.858 6.183,-12.775c2.489,-2.916 5.95,-4.958 10.383,-6.125c4.434,-1.166 10.617,-1.75 18.55,-1.75l10.034,0l0.35,-1.4c0.544,-2.333 0.816,-3.966 0.816,-4.9c0,-1.789 -0.622,-2.975 -1.866,-3.558c-1.245,-0.583 -3.539,-0.875 -6.884,-0.875c-4.9,-0 -8.419,0.486 -10.558,1.458c-2.139,0.973 -3.558,2.975 -4.258,6.009l-13.884,-0c1.323,-5.289 3.014,-9.295 5.075,-12.017c2.061,-2.722 4.92,-4.628 8.575,-5.717c3.656,-1.089 8.75,-1.633 15.284,-1.633c8.089,-0 13.902,0.972 17.441,2.917c3.539,1.944 5.309,5.211 5.309,9.8c-0,2.722 -0.584,6.027 -1.75,9.916l-11.434,39.784l-13.3,-0l2.334,-7.234l-0.817,0c-3.189,3.267 -6.028,5.464 -8.517,6.592c-2.489,1.128 -5.716,1.692 -9.683,1.692Zm-3.617,-18.434c-0.389,1.4 -0.583,2.45 -0.583,3.15c0,1.245 0.506,2.081 1.517,2.509c1.011,0.427 2.839,0.641 5.483,0.641c4.122,0 7.467,-0.505 10.033,-1.516c2.567,-1.011 4.725,-2.723 6.475,-5.134c1.75,-2.411 3.325,-5.833 4.725,-10.266l-10.5,-0c-5.133,-0 -9.002,0.797 -11.608,2.391c-2.606,1.595 -4.453,4.336 -5.542,8.225Z" style="fill:#dfe1ec;fill-rule:nonzero;"/>
            <path d="M404.542,837.85c-5.911,-0 -10.617,-0.331 -14.117,-0.992c-3.5,-0.661 -6.086,-1.808 -7.758,-3.442c-1.673,-1.633 -2.509,-3.927 -2.509,-6.883c0,-2.489 0.584,-5.522 1.75,-9.1l14,-0c-0.389,1.711 -0.583,2.956 -0.583,3.733c-0,1.711 0.758,2.917 2.275,3.617c1.517,0.7 4.181,1.05 7.992,1.05c4.9,-0 8.73,-0.544 11.491,-1.633c2.761,-1.089 4.492,-3.111 5.192,-6.067c0.156,-0.778 0.233,-1.283 0.233,-1.517c0,-1.477 -0.894,-2.644 -2.683,-3.5c-1.789,-0.855 -5.133,-1.75 -10.033,-2.683c-7.623,-1.478 -12.97,-3.208 -16.042,-5.192c-3.072,-1.983 -4.608,-4.802 -4.608,-8.458c-0,-1.789 0.272,-3.733 0.816,-5.833c1.089,-4.356 2.723,-7.72 4.9,-10.092c2.178,-2.372 5.27,-4.044 9.275,-5.017c4.006,-0.972 9.47,-1.458 16.392,-1.458c5.6,-0 10.033,0.311 13.3,0.933c3.267,0.623 5.678,1.711 7.233,3.267c1.556,1.556 2.334,3.733 2.334,6.533c-0,2.178 -0.389,4.667 -1.167,7.467l-13.65,-0c0.233,-0.933 0.35,-1.75 0.35,-2.45c-0,-1.478 -0.642,-2.469 -1.925,-2.975c-1.283,-0.506 -3.519,-0.758 -6.708,-0.758c-5.523,-0 -9.528,0.486 -12.017,1.458c-2.489,0.972 -4.006,2.469 -4.55,4.492c-0.156,0.622 -0.233,1.011 -0.233,1.166c-0,1.245 1.03,2.334 3.091,3.267c2.061,0.933 5.814,2.022 11.259,3.267c7,1.633 11.919,3.5 14.758,5.6c2.839,2.1 4.258,4.977 4.258,8.633c0,1.711 -0.311,3.889 -0.933,6.533c-1.167,4.511 -2.858,7.973 -5.075,10.384c-2.217,2.411 -5.367,4.122 -9.45,5.133c-4.083,1.011 -9.703,1.517 -16.858,1.517Z" style="fill:#dfe1ec;fill-rule:nonzero;"/>
            <path d="M474.542,837.85c-5.911,-0 -10.617,-0.331 -14.117,-0.992c-3.5,-0.661 -6.086,-1.808 -7.758,-3.442c-1.673,-1.633 -2.509,-3.927 -2.509,-6.883c0,-2.489 0.584,-5.522 1.75,-9.1l14,-0c-0.389,1.711 -0.583,2.956 -0.583,3.733c-0,1.711 0.758,2.917 2.275,3.617c1.517,0.7 4.181,1.05 7.992,1.05c4.9,-0 8.73,-0.544 11.491,-1.633c2.761,-1.089 4.492,-3.111 5.192,-6.067c0.156,-0.778 0.233,-1.283 0.233,-1.517c0,-1.477 -0.894,-2.644 -2.683,-3.5c-1.789,-0.855 -5.133,-1.75 -10.033,-2.683c-7.623,-1.478 -12.97,-3.208 -16.042,-5.192c-3.072,-1.983 -4.608,-4.802 -4.608,-8.458c-0,-1.789 0.272,-3.733 0.816,-5.833c1.089,-4.356 2.723,-7.72 4.9,-10.092c2.178,-2.372 5.27,-4.044 9.275,-5.017c4.006,-0.972 9.47,-1.458 16.392,-1.458c5.6,-0 10.033,0.311 13.3,0.933c3.267,0.623 5.678,1.711 7.233,3.267c1.556,1.556 2.334,3.733 2.334,6.533c-0,2.178 -0.389,4.667 -1.167,7.467l-13.65,-0c0.233,-0.933 0.35,-1.75 0.35,-2.45c-0,-1.478 -0.642,-2.469 -1.925,-2.975c-1.283,-0.506 -3.519,-0.758 -6.708,-0.758c-5.523,-0 -9.528,0.486 -12.017,1.458c-2.489,0.972 -4.006,2.469 -4.55,4.492c-0.156,0.622 -0.233,1.011 -0.233,1.166c-0,1.245 1.03,2.334 3.091,3.267c2.061,0.933 5.814,2.022 11.259,3.267c7,1.633 11.919,3.5 14.758,5.6c2.839,2.1 4.258,4.977 4.258,8.633c0,1.711 -0.311,3.889 -0.933,6.533c-1.167,4.511 -2.858,7.973 -5.075,10.384c-2.217,2.411 -5.367,4.122 -9.45,5.133c-4.083,1.011 -9.703,1.517 -16.858,1.517Z" style="fill:#dfe1ec;fill-rule:nonzero;"/>
            <path d="M545.942,837.85c-5.911,-0 -10.617,-0.467 -14.117,-1.4c-3.5,-0.934 -6.086,-2.509 -7.758,-4.725c-1.673,-2.217 -2.509,-5.231 -2.509,-9.042c0,-4.511 1.128,-10.617 3.384,-18.317c2.333,-8.089 4.861,-14.233 7.583,-18.433c2.722,-4.2 6.203,-7.175 10.442,-8.925c4.239,-1.75 9.936,-2.625 17.091,-2.625c8.245,-0 14.175,1.108 17.792,3.325c3.617,2.217 5.425,6.125 5.425,11.725c-0,5.133 -1.556,12.561 -4.667,22.283l-41.416,0c-1.011,3.267 -1.517,5.717 -1.517,7.35c0,2.489 0.856,4.239 2.567,5.25c1.711,1.011 4.355,1.517 7.933,1.517c4.589,-0 7.933,-0.564 10.033,-1.692c2.1,-1.127 3.811,-3.325 5.134,-6.591l15.05,-0c-2.411,5.444 -4.881,9.605 -7.409,12.483c-2.527,2.878 -5.561,4.9 -9.1,6.067c-3.539,1.166 -8.186,1.75 -13.941,1.75Zm21.816,-36.867c0.623,-3.111 0.934,-5.561 0.934,-7.35c-0,-2.567 -0.661,-4.414 -1.984,-5.542c-1.322,-1.127 -3.616,-1.691 -6.883,-1.691c-5.522,-0 -9.839,1.127 -12.95,3.383c-3.111,2.256 -5.406,5.989 -6.883,11.2l27.766,-0Z" style="fill:#dfe1ec;fill-rule:nonzero;"/>
            <path d="M618.592,838.083c-6.3,-0 -10.753,-0.914 -13.359,-2.742c-2.605,-1.827 -3.908,-4.647 -3.908,-8.458c0,-2.878 0.583,-6.3 1.75,-10.267l8.167,-28.7l-15.167,0l6.3,-12.016l12.833,-0l4.2,-15.167l14.35,-2.917l-5.016,18.084l22.75,-0l-3.5,12.016l-22.75,0l-8.4,29.634c-0.7,2.8 -1.05,4.511 -1.05,5.133c-0,1.167 0.505,1.964 1.516,2.392c1.011,0.427 2.878,0.641 5.6,0.641c2.1,0 4.492,-0.136 7.175,-0.408c2.684,-0.272 5.542,-0.642 8.575,-1.108l-1.983,12.483c-7.7,0.933 -13.728,1.4 -18.083,1.4Z" style="fill:#dfe1ec;fill-rule:nonzero;"/>
            <path d="M682.592,838.083c-6.3,-0 -10.753,-0.914 -13.359,-2.742c-2.605,-1.827 -3.908,-4.647 -3.908,-8.458c0,-2.878 0.583,-6.3 1.75,-10.267l8.167,-28.7l-15.167,0l6.3,-12.016l12.833,-0l4.2,-15.167l14.35,-2.917l-5.016,18.084l22.75,-0l-3.5,12.016l-22.75,0l-8.4,29.634c-0.7,2.8 -1.05,4.511 -1.05,5.133c-0,1.167 0.505,1.964 1.516,2.392c1.011,0.427 2.878,0.641 5.6,0.641c2.1,0 4.492,-0.136 7.175,-0.408c2.684,-0.272 5.542,-0.642 8.575,-1.108l-1.983,12.483c-7.7,0.933 -13.728,1.4 -18.083,1.4Z" style="fill:#dfe1ec;fill-rule:nonzero;"/>
            <path d="M743.942,837.85c-5.911,-0 -10.617,-0.467 -14.117,-1.4c-3.5,-0.934 -6.086,-2.509 -7.758,-4.725c-1.673,-2.217 -2.509,-5.231 -2.509,-9.042c0,-4.511 1.128,-10.617 3.384,-18.317c2.333,-8.089 4.861,-14.233 7.583,-18.433c2.722,-4.2 6.203,-7.175 10.442,-8.925c4.239,-1.75 9.936,-2.625 17.091,-2.625c8.245,-0 14.175,1.108 17.792,3.325c3.617,2.217 5.425,6.125 5.425,11.725c-0,5.133 -1.556,12.561 -4.667,22.283l-41.416,0c-1.011,3.267 -1.517,5.717 -1.517,7.35c0,2.489 0.856,4.239 2.567,5.25c1.711,1.011 4.355,1.517 7.933,1.517c4.589,-0 7.933,-0.564 10.033,-1.692c2.1,-1.127 3.811,-3.325 5.134,-6.591l15.05,-0c-2.411,5.444 -4.881,9.605 -7.409,12.483c-2.527,2.878 -5.561,4.9 -9.1,6.067c-3.539,1.166 -8.186,1.75 -13.941,1.75Zm21.816,-36.867c0.623,-3.111 0.934,-5.561 0.934,-7.35c-0,-2.567 -0.661,-4.414 -1.984,-5.542c-1.322,-1.127 -3.616,-1.691 -6.883,-1.691c-5.522,-0 -9.839,1.127 -12.95,3.383c-3.111,2.256 -5.406,5.989 -6.883,11.2l27.766,-0Z" style="fill:#dfe1ec;fill-rule:nonzero;"/>
        </g>
        <g>
            <path d="M542.717,546.052c-111.209,-69.256 -222.417,-138.511 -333.626,-207.767" style="fill:none;stroke:#f9df4b;stroke-width:3.33px;"/>
            <path d="M324.735,393.303c-4.011,-2.498 -8.021,-4.996 -12.032,-7.494m147.397,91.793c-4.066,-2.532 -8.131,-5.064 -12.197,-7.596" style="fill:none;stroke:#f9df4b;stroke-width:3.33px;"/>
            <path d="M338.427,385.829c-4.022,-2.504 -8.043,-5.009 -12.065,-7.513m147.397,91.792c-4.071,-2.535 -8.143,-5.071 -12.214,-7.607" style="fill:none;stroke:#f9df4b;stroke-width:3.33px;"/>
            <path d="M313.625,425.384c-5.667,-3.529 -11.334,-7.058 -17,-10.587m152.259,94.82c-5,-3.114 -10,-6.228 -15,-9.342" style="fill:none;stroke:#f9df4b;stroke-width:3.33px;"/>
            <path d="M313.625,455.384c-5.667,-3.529 -11.334,-7.058 -17,-10.587m152.259,94.82c-5,-3.114 -10,-6.228 -15,-9.342" style="fill:none;stroke:#f9df4b;stroke-width:3.33px;"/>
            <path d="M276.246,387.352c-23.051,-14.356 -46.103,-28.712 -69.155,-43.067m200.332,124.757c-22.269,-13.868 -44.538,-27.736 -66.807,-41.604m194.57,121.169c-19.761,-12.306 -39.521,-24.611 -59.281,-36.917" style="fill:none;stroke:#f9df4b;stroke-width:3.33px;"/>
            <path d="M276.246,397.352c-20.718,-12.903 -41.437,-25.805 -62.155,-38.708m193.332,120.398c-19.936,-12.415 -39.871,-24.83 -59.807,-37.245m187.57,116.81c-17.427,-10.852 -34.854,-21.705 -52.281,-32.558" style="fill:none;stroke:#f9df4b;stroke-width:3.33px;"/>
            <path d="M276.246,445.352c-23.051,-14.356 -46.103,-28.712 -69.155,-43.067m200.332,124.757c-22.269,-13.868 -44.538,-27.736 -66.807,-41.604m194.57,121.169c-19.761,-12.306 -39.521,-24.611 -59.281,-36.917" style="fill:none;stroke:#f9df4b;stroke-width:3.33px;"/>
            <path d="M598.098,490.473c-99.115,-61.725 -198.231,-123.45 -297.347,-185.175" style="fill:none;stroke:#f9df4b;stroke-width:3.33px;"/>
            <path d="M609.69,494.909c-99.115,-61.725 -198.231,-123.449 -297.347,-185.174" style="fill:none;stroke:#f9df4b;stroke-width:3.33px;"/>
            <path d="M300.751,305.298c3.864,1.479 7.728,2.958 11.592,4.437" style="fill:none;stroke:#f9df4b;stroke-width:3.33px;"/>
            <path d="M209.091,338.285c-3.765,1.374 -7.53,2.749 -11.295,4.123" style="fill:none;stroke:#f9df4b;stroke-width:3.33px;"/>
            <path d="M542.717,546.052c18.461,-18.526 36.921,-37.053 55.381,-55.579" style="fill:none;stroke:#f9df4b;stroke-width:3.33px;"/>
            <path d="M545.977,559.239c21.238,-21.314 42.475,-42.987 63.713,-64.33" style="fill:none;stroke:#f9df4b;stroke-width:3.33px;"/>
            <path d="M542.717,546.052c1.087,4.396 2.173,8.791 3.26,13.187" style="fill:none;stroke:#f9df4b;stroke-width:3.33px;"/>
            <path d="M209.091,338.285c30.553,-10.996 61.107,-21.991 91.66,-32.987" style="fill:none;stroke:#f9df4b;stroke-width:3.33px;"/>
            <path d="M207.091,344.285l-0,58" style="fill:none;stroke:#f9df4b;stroke-width:3.33px;"/>
            <path d="M214.091,348.644l-0,49.801" style="fill:none;stroke:#f9df4b;stroke-width:3.33px;"/>
            <path d="M276.246,387.352l0,58" style="fill:none;stroke:#f9df4b;stroke-width:3.33px;"/>
            <path d="M296.625,414.797l-0,30" style="fill:none;stroke:#f9df4b;stroke-width:3.33px;"/>
            <path d="M313.625,425.384l-0,30" style="fill:none;stroke:#f9df4b;stroke-width:3.33px;"/>
            <path d="M433.884,500.275l-0,30" style="fill:none;stroke:#f9df4b;stroke-width:3.33px;"/>
            <path d="M448.884,509.617l-0,30" style="fill:none;stroke:#f9df4b;stroke-width:3.33px;"/>
            <path d="M340.616,427.438l-0,58" style="fill:none;stroke:#f9df4b;stroke-width:3.33px;"/>
            <path d="M347.616,431.797l-0,49.796" style="fill:none;stroke:#f9df4b;stroke-width:3.33px;"/>
            <path d="M407.423,469.042l-0,58" style="fill:none;stroke:#f9df4b;stroke-width:3.33px;"/>
            <path d="M475.905,511.69l0,58" style="fill:none;stroke:#f9df4b;stroke-width:3.33px;"/>
            <path d="M482.905,516.049l0,49.796" style="fill:none;stroke:#f9df4b;stroke-width:3.33px;"/>
            <path d="M535.186,548.607l-0,58" style="fill:none;stroke:#f9df4b;stroke-width:3.33px;"/>
            <path d="M276.246,428.192c-2.08,1.165 -4.979,1.889 -8.182,1.889c-6.326,-0 -11.462,-2.822 -11.462,-6.297c0,-3.475 5.136,-6.297 11.462,-6.297c3.203,0 6.102,0.724 8.182,1.889" style="fill:none;stroke:#f9df4b;stroke-width:3.33px;"/>
            <path d="M598.098,490.473c3.864,1.478 7.728,2.957 11.592,4.436" style="fill:none;stroke:#f9df4b;stroke-width:3.33px;"/>
            <ellipse cx="268.064" cy="359.784" rx="11.462" ry="6.297" style="fill:none;stroke:#f9df4b;stroke-width:3.33px;"/>
            <ellipse cx="508.095" cy="504.034" rx="11.462" ry="6.297" style="fill:none;stroke:#f9df4b;stroke-width:3.33px;"/>
            <ellipse cx="508.095" cy="571.034" rx="11.462" ry="6.297" style="fill:none;stroke:#f9df4b;stroke-width:3.33px;"/>
            <path d="M207.091,402.285c7.993,-4.385 19.401,-10.644 27.394,-15.029" style="fill:none;stroke:#f9df4b;stroke-width:3.33px;"/>
            <path d="M475.905,569.69c8.351,-4.581 19.018,-10.463 27.369,-15.044" style="fill:none;stroke:#f9df4b;stroke-width:3.33px;"/>
            <path d="M340.616,485.438c8.351,-4.581 19.018,-10.463 27.369,-15.044" style="fill:none;stroke:#f9df4b;stroke-width:3.33px;"/>
            <path d="M131.714,297.902l0,49.89" style="fill:none;stroke:#f9df4b;stroke-width:3.33px;"/>
            <path d="M926.59,414.773l0,50.105" style="fill:none;stroke:#f9df4b;stroke-width:3.33px;"/>
            <path d="M869.443,407.342l-0,21.751" style="fill:none;stroke:#f9df4b;stroke-width:3.33px;"/>
            <path d="M424.622,160.572l48.564,0" style="fill:none;stroke:#f9df4b;stroke-width:4.17px;"/>
            <path d="M531.944,612.5c4.929,-0.93 9.859,-1.86 14.789,-2.79" style="fill:none;stroke:#f9df4b;stroke-width:3.33px;"/>
            <path d="M455.965,128.524l466,280.062" style="fill:none;stroke:#f9df4b;stroke-width:3.33px;"/>
            <path d="M921.799,421.169c-97.908,58.379 -195.816,116.758 -293.724,175.138" style="fill:none;stroke:#f9df4b;stroke-width:3.33px;"/>
            <path d="M869.443,429.093c-60.619,36.145 -121.238,72.29 -181.856,108.435" style="fill:none;stroke:#f9df4b;stroke-width:3.33px;"/>
            <path d="M639.241,615.649c-3.722,2.219 -7.444,4.438 -11.166,6.658m293.724,-175.138c-67.569,40.289 -135.138,80.578 -202.708,120.868" style="fill:none;stroke:#f9df4b;stroke-width:3.33px;"/>
            <path d="M639.241,615.649c0.784,-0.467 1.567,-0.934 2.35,-1.401" style="fill:none;stroke:#f9df4b;stroke-width:3.33px;"/>
            <path d="M651.464,615.743c21.418,-12.771 42.836,-25.488 64.254,-38.259" style="fill:none;stroke:#f9df4b;stroke-width:3.33px;"/>
            <path d="M644.982,604.829c21.298,-12.699 42.957,-25.559 64.255,-38.259" style="fill:none;stroke:#f9df4b;stroke-width:3.33px;"/>
            <path d="M641.581,614.23c-1.789,-3.011 -0.264,-7.224 3.401,-9.401" style="fill:none;stroke:#f9df4b;stroke-width:3.33px;"/>
            <path d="M651.464,615.743c-3.666,2.177 -8.094,1.499 -9.883,-1.513" style="fill:none;stroke:#f9df4b;stroke-width:3.33px;"/>
            <path d="M719.119,568.083c1.789,3.012 0.265,7.224 -3.401,9.401" style="fill:none;stroke:#f9df4b;stroke-width:3.33px;"/>
            <path d="M709.237,566.57c3.665,-2.176 8.094,-1.499 9.882,1.513" style="fill:none;stroke:#f9df4b;stroke-width:3.33px;"/>
            <path d="M197.796,342.408c-20.429,-12.722 -40.858,-25.444 -61.287,-38.167m469.448,292.351c-19.993,-12.451 -39.987,-24.902 -59.98,-37.353" style="fill:none;stroke:#f9df4b;stroke-width:3.33px;"/>
            <path d="M687.587,537.528c-148.324,-92.37 -296.649,-184.739 -444.973,-277.109" style="fill:none;stroke:#f9df4b;stroke-width:3.33px;"/>
            <path d="M617.477,430.698c-82.36,-51.29 -133.458,-82.775 -211.201,-131.207" style="fill:none;stroke:#f9df4b;stroke-width:3.33px;"/>
            <path d="M685.236,392.701c-77.374,-48.104 -126.959,-78.702 -210.215,-130.55" style="fill:none;stroke:#f9df4b;stroke-width:3.33px;"/>
            <path d="M869.008,407.071c-132.085,-82.256 -263.736,-164.242 -395.822,-246.499" style="fill:none;stroke:#f9df4b;stroke-width:4.17px;"/>
            <path d="M630.185,367.265c-34.669,-21.59 -69.329,-43.174 -103.997,-64.764" style="fill:none;stroke:#f9df4b;stroke-width:3.33px;"/>
            <path d="M592.634,387.861c-34.668,-21.59 -69.328,-43.174 -103.997,-64.765" style="fill:none;stroke:#f9df4b;stroke-width:3.33px;"/>
            <path d="M207.091,374.196c-23.527,-14.651 -47.054,-29.303 -70.582,-43.955m469.448,292.351c-22.59,-14.068 -69.771,-43.451 -70.771,-44.073" style="fill:none;stroke:#f9df4b;stroke-width:3.33px;"/>
            <path d="M535.186,574.519c-17.427,-10.853 -34.854,-21.706 -52.281,-32.558" style="fill:none;stroke:#f9df4b;stroke-width:3.33px;"/>
            <path d="M482.905,541.961l-7,-0.36l-68.482,-42.647" style="fill:none;stroke:#f9df4b;stroke-width:3.33px;"/>
            <path d="M407.423,494.954c-0,-0 -36.366,-22.647 -59.807,-37.245" style="fill:none;stroke:#f9df4b;stroke-width:3.33px;"/>
            <path d="M347.616,457.709l-7,-0.359c-0,-0 -64.342,-40.07 -64.37,-40.087" style="fill:none;stroke:#f9df4b;stroke-width:3.33px;"/>
            <path d="M276.246,413.263c-19.958,-12.429 -45.64,-28.422 -62.155,-38.707" style="fill:none;stroke:#f9df4b;stroke-width:3.33px;"/>
            <path d="M214.091,374.556l-7,-0.36" style="fill:none;stroke:#f9df4b;stroke-width:3.33px;"/>
            <path d="M136.336,291.562c99.207,-54.423 198.414,-108.847 297.621,-163.271" style="fill:none;stroke:#f9df4b;stroke-width:3.33px;"/>
            <path d="M312.703,385.809c4.553,-2.497 9.106,-4.995 13.659,-7.493" style="fill:none;stroke:#f9df4b;stroke-width:3.33px;"/>
            <path d="M324.804,393.303c4.553,-2.498 9.106,-4.996 13.66,-7.494" style="fill:none;stroke:#f9df4b;stroke-width:3.33px;"/>
            <path d="M447.903,470.006c4.553,-2.498 9.088,-5.007 13.642,-7.505" style="fill:none;stroke:#f9df4b;stroke-width:3.33px;"/>
            <path d="M460.1,477.602c4.553,-2.498 9.106,-4.996 13.659,-7.494" style="fill:none;stroke:#f9df4b;stroke-width:3.33px;"/>
            <path d="M243.071,260.154c60.669,-33.283 120.882,-66.3 181.551,-99.582" style="fill:none;stroke:#f9df4b;stroke-width:4.17px;"/>
            <path d="M488.637,323.096c12.522,-6.868 25.036,-13.731 37.551,-20.595" style="fill:none;stroke:#f9df4b;stroke-width:3.33px;"/>
            <path d="M592.634,387.861c12.521,-6.867 25.035,-13.731 37.551,-20.596" style="fill:none;stroke:#f9df4b;stroke-width:3.33px;"/>
            <path d="M564.436,326.32c-8.278,9.341 -18.91,17.621 -31.341,24.463" style="fill:none;stroke:#f9df4b;stroke-width:3.33px;"/>
            <path d="M566.945,371.863c8.837,-9.141 20.66,-16.845 34.529,-22.477" style="fill:none;stroke:#f9df4b;stroke-width:3.33px;"/>
            <path d="M605.957,596.592c4.643,2.813 14.828,4.112 22.118,-0.285" style="fill:none;stroke:#f9df4b;stroke-width:3.33px;"/>
            <path d="M605.957,622.592c4.643,2.813 14.828,4.112 22.118,-0.285" style="fill:none;stroke:#f9df4b;stroke-width:3.33px;"/>
            <path d="M921.965,408.586c6.257,3.711 6.13,8.798 -0.166,12.583" style="fill:none;stroke:#f9df4b;stroke-width:3.33px;"/>
            <path d="M926.59,440.773c0,2.234 -1.606,4.481 -4.791,6.396" style="fill:none;stroke:#f9df4b;stroke-width:3.33px;"/>
            <path d="M136.336,291.562c-6.258,3.711 -6.123,8.894 0.173,12.679" style="fill:none;stroke:#f9df4b;stroke-width:3.33px;"/>
            <path d="M131.714,323.792c0,2.26 1.608,4.534 4.795,6.449" style="fill:none;stroke:#f9df4b;stroke-width:3.33px;"/>
            <path d="M433.957,128.291c4.642,-2.814 14.718,-4.164 22.008,0.233" style="fill:none;stroke:#f9df4b;stroke-width:3.33px;"/>
            <path d="M921.799,471.169c-97.908,58.379 -195.816,116.758 -293.724,175.138" style="fill:none;stroke:#f9df4b;stroke-width:3.33px;"/>
            <path d="M199.259,393.319c-20.917,-13.026 -41.833,-26.052 -62.75,-39.078m469.448,292.351c-19.741,-12.294 -39.483,-24.588 -59.224,-36.882" style="fill:none;stroke:#f9df4b;stroke-width:3.33px;"/>
            <path d="M531.944,612.5c-108.559,-67.606 -328.576,-204.622 -330.026,-205.525" style="fill:none;stroke:#f9df4b;stroke-width:3.33px;"/>
            <path d="M201.918,406.975c-0.886,-4.552 -1.773,-9.104 -2.659,-13.656" style="fill:none;stroke:#f9df4b;stroke-width:3.33px;"/>
            <path d="M605.957,646.592c4.643,2.813 14.828,4.112 22.118,-0.285" style="fill:none;stroke:#f9df4b;stroke-width:3.33px;"/>
            <path d="M926.59,464.773c0,2.234 -1.606,4.481 -4.791,6.396" style="fill:none;stroke:#f9df4b;stroke-width:3.33px;"/>
            <path d="M131.714,347.792c0,2.26 1.608,4.534 4.795,6.449" style="fill:none;stroke:#f9df4b;stroke-width:3.33px;"/>
            <ellipse cx="441.716" cy="281.522" rx="46.5" ry="27.768" style="fill:none;stroke:#f9df4b;stroke-width:3.33px;"/>
            <path d="M407.312,300.194c-1.89,-2.666 -2.934,-5.597 -2.934,-8.672c-0,-12.307 16.73,-22.298 37.338,-22.298c20.608,0 37.339,9.991 37.339,22.298c-0,3.075 -1.045,6.006 -2.934,8.672" style="fill:none;stroke:#f9df4b;stroke-width:3.33px;"/>
            <path d="M405.994,298.016c4.667,-9.137 18.903,-15.792 35.722,-15.792c16.819,0 31.056,6.655 35.722,15.792" style="fill:none;stroke:#f9df4b;stroke-width:3.33px;"/>
            <path d="M616.875,430.275c-1.413,-2.35 -2.182,-4.883 -2.182,-7.522c-0,-12.306 16.731,-22.297 37.338,-22.297c20.608,-0 37.339,9.991 37.339,22.297c0,2.774 -0.85,5.43 -2.403,7.881" style="fill:none;stroke:#f9df4b;stroke-width:3.33px;"/>
            <path d="M616.309,429.248c4.666,-9.137 18.903,-15.792 35.722,-15.792c16.817,-0 31.051,6.652 35.72,15.787" style="fill:none;stroke:#f9df4b;stroke-width:3.33px;"/>
            <ellipse cx="652.181" cy="412.224" rx="46.5" ry="27.768" style="fill:none;stroke:#f9df4b;stroke-width:3.33px;"/>
            <g>
                <path d="M309.946,302.351l51.072,-0" style="fill:none;stroke:#f9df4b;stroke-width:2.08px;"/>
                <path d="M317.975,307.351l95.189,-0" style="fill:none;stroke:#f9df4b;stroke-width:2.08px;"/>
                <path d="M326.004,312.351l100.927,-0" style="fill:none;stroke:#f9df4b;stroke-width:2.08px;"/>
                <path d="M334.033,317.351l100.936,-0" style="fill:none;stroke:#f9df4b;stroke-width:2.08px;"/>
                <path d="M579.949,327.351l41.8,-0m-271.658,-0l100.966,-0" style="fill:none;stroke:#f9df4b;stroke-width:2.08px;"/>
                <path d="M342.062,322.351l100.949,-0" style="fill:none;stroke:#f9df4b;stroke-width:2.08px;"/>
                <path d="M588.01,332.351l85.885,-0m-315.775,-0l100.985,-0" style="fill:none;stroke:#f9df4b;stroke-width:2.08px;"/>
                <path d="M596.071,337.351l129.97,-0m-309.188,-0l50.304,-0" style="fill:none;stroke:#f9df4b;stroke-width:2.08px;"/>
                <path d="M612.194,347.351l160.916,-0" style="fill:none;stroke:#f9df4b;stroke-width:2.08px;"/>
                <path d="M604.133,342.351l160.948,-0" style="fill:none;stroke:#f9df4b;stroke-width:2.08px;"/>
                <path d="M620.254,352.351l160.885,-0" style="fill:none;stroke:#f9df4b;stroke-width:2.08px;"/>
                <path d="M677.583,362.351l119.614,-0" style="fill:none;stroke:#f9df4b;stroke-width:2.08px;"/>
                <path d="M628.314,357.351l160.854,-0" style="fill:none;stroke:#f9df4b;stroke-width:2.08px;"/>
                <path d="M729.73,367.351l75.495,-0" style="fill:none;stroke:#f9df4b;stroke-width:2.08px;"/>
                <path d="M781.876,372.351l31.378,-0" style="fill:none;stroke:#f9df4b;stroke-width:2.08px;"/>
            </g>
        </g>
    </g>
</svg>
