<?xml version="1.0" encoding="UTF-8" standalone="no"?>
<!DOCTYPE svg PUBLIC "-//W3C//DTD SVG 1.1//EN" "http://www.w3.org/Graphics/SVG/1.1/DTD/svg11.dtd">
<svg width="100%" height="100%" viewBox="0 0 540 200" version="1.1" xmlns="http://www.w3.org/2000/svg" xmlns:xlink="http://www.w3.org/1999/xlink" xml:space="preserve" xmlns:serif="http://www.serif.com/" style="fill-rule:evenodd;clip-rule:evenodd;stroke-linecap:round;stroke-linejoin:round;stroke-miterlimit:1.5;">
    <rect id="Artboard2" x="-0" y="0" width="540" height="199.998" style="fill:none;"/>
    <clipPath id="_clip1">
        <rect id="Artboard21" serif:id="Artboard2" x="-0" y="0" width="540" height="199.998"/>
    </clipPath>
    <g clip-path="url(#_clip1)">
        <rect x="-40" y="-28.889" width="618.042" height="257.776" style="fill:#3b4b9c;"/>
        <g>
            <path d="M162.314,146.641c-32.797,-20.364 -65.594,-40.728 -98.391,-61.092" style="fill:none;stroke:#f9df4b;stroke-width:0.98px;"/>
            <path d="M98.028,101.727c-1.183,-0.735 -2.366,-1.469 -3.549,-2.204m43.47,26.991c-1.199,-0.745 -2.398,-1.489 -3.597,-2.234" style="fill:none;stroke:#f9df4b;stroke-width:0.98px;"/>
            <path d="M102.066,99.529c-1.186,-0.736 -2.372,-1.473 -3.558,-2.209m43.469,26.99c-1.201,-0.745 -2.402,-1.491 -3.602,-2.236" style="fill:none;stroke:#f9df4b;stroke-width:0.98px;"/>
            <path d="M94.751,111.159c-1.671,-1.037 -3.342,-2.075 -5.014,-3.112m44.904,27.88c-1.475,-0.915 -2.949,-1.831 -4.424,-2.746" style="fill:none;stroke:#f9df4b;stroke-width:0.98px;"/>
            <path d="M94.751,119.981c-1.671,-1.038 -3.342,-2.076 -5.014,-3.113m44.904,27.88c-1.475,-0.915 -2.949,-1.831 -4.424,-2.746" style="fill:none;stroke:#f9df4b;stroke-width:0.98px;"/>
            <path d="M83.728,99.977c-6.799,-4.221 -13.597,-8.443 -20.395,-12.664m59.08,36.684c-6.567,-4.078 -13.134,-8.156 -19.702,-12.233m57.382,35.628c-5.828,-3.618 -11.656,-7.237 -17.483,-10.855" style="fill:none;stroke:#f9df4b;stroke-width:0.98px;"/>
            <path d="M83.728,102.917c-6.11,-3.794 -12.221,-7.588 -18.331,-11.381m57.016,35.401c-5.879,-3.65 -11.758,-7.301 -17.637,-10.951m55.317,34.346c-5.14,-3.191 -10.279,-6.382 -15.419,-9.573" style="fill:none;stroke:#f9df4b;stroke-width:0.98px;"/>
            <path d="M83.728,117.031c-6.799,-4.221 -13.597,-8.442 -20.395,-12.663m59.08,36.683c-6.567,-4.078 -13.134,-8.155 -19.702,-12.233m57.382,35.628c-5.828,-3.618 -11.656,-7.237 -17.483,-10.855" style="fill:none;stroke:#f9df4b;stroke-width:0.98px;"/>
            <path d="M178.646,130.298c-29.23,-18.149 -58.461,-36.299 -87.692,-54.448" style="fill:none;stroke:#f9df4b;stroke-width:0.98px;"/>
            <path d="M182.065,131.603c-29.231,-18.15 -58.461,-36.299 -87.692,-54.449" style="fill:none;stroke:#f9df4b;stroke-width:0.98px;"/>
            <path d="M90.954,75.85c1.14,0.435 2.28,0.87 3.419,1.304" style="fill:none;stroke:#f9df4b;stroke-width:0.98px;"/>
            <path d="M63.923,85.549c-1.111,0.404 -2.221,0.808 -3.331,1.213" style="fill:none;stroke:#f9df4b;stroke-width:0.98px;"/>
            <path d="M162.314,146.641c5.444,-5.448 10.888,-10.895 16.332,-16.343" style="fill:none;stroke:#f9df4b;stroke-width:0.98px;"/>
            <path d="M163.275,150.518c6.263,-6.267 12.527,-12.64 18.79,-18.915" style="fill:none;stroke:#f9df4b;stroke-width:0.98px;"/>
            <path d="M162.314,146.641c0.32,1.292 0.641,2.585 0.961,3.877" style="fill:none;stroke:#f9df4b;stroke-width:0.98px;"/>
            <path d="M63.923,85.549c9.01,-3.233 18.021,-6.466 27.031,-9.699" style="fill:none;stroke:#f9df4b;stroke-width:0.98px;"/>
            <path d="M63.333,87.313l-0,17.055" style="fill:none;stroke:#f9df4b;stroke-width:0.98px;"/>
            <path d="M65.397,88.595l0,14.643" style="fill:none;stroke:#f9df4b;stroke-width:0.98px;"/>
            <path d="M83.728,99.977l-0,17.054" style="fill:none;stroke:#f9df4b;stroke-width:0.98px;"/>
            <path d="M89.737,108.047l0,8.821" style="fill:none;stroke:#f9df4b;stroke-width:0.98px;"/>
            <path d="M94.751,111.159l0,8.822" style="fill:none;stroke:#f9df4b;stroke-width:0.98px;"/>
            <path d="M130.217,133.181l0,8.821" style="fill:none;stroke:#f9df4b;stroke-width:0.98px;"/>
            <path d="M134.641,135.927l-0,8.821" style="fill:none;stroke:#f9df4b;stroke-width:0.98px;"/>
            <path d="M102.711,111.764l0,17.054" style="fill:none;stroke:#f9df4b;stroke-width:0.98px;"/>
            <path d="M104.776,113.045l-0,14.642" style="fill:none;stroke:#f9df4b;stroke-width:0.98px;"/>
            <path d="M122.413,123.997l0,17.054" style="fill:none;stroke:#f9df4b;stroke-width:0.98px;"/>
            <path d="M142.61,136.537l-0,17.054" style="fill:none;stroke:#f9df4b;stroke-width:0.98px;"/>
            <path d="M144.674,137.819l0,14.641" style="fill:none;stroke:#f9df4b;stroke-width:0.98px;"/>
            <path d="M160.093,147.392l-0,17.054" style="fill:none;stroke:#f9df4b;stroke-width:0.98px;"/>
            <path d="M83.728,111.985c-0.614,0.343 -1.469,0.556 -2.413,0.556c-1.866,-0 -3.381,-0.83 -3.381,-1.852c0,-1.022 1.515,-1.851 3.381,-1.851c0.944,-0 1.799,0.212 2.413,0.555" style="fill:none;stroke:#f9df4b;stroke-width:0.98px;"/>
            <path d="M178.646,130.298c1.14,0.435 2.279,0.87 3.419,1.305" style="fill:none;stroke:#f9df4b;stroke-width:0.98px;"/>
            <ellipse cx="81.315" cy="91.871" rx="3.38" ry="1.851" style="fill:none;stroke:#f9df4b;stroke-width:0.98px;"/>
            <ellipse cx="152.103" cy="134.286" rx="3.38" ry="1.851" style="fill:none;stroke:#f9df4b;stroke-width:0.98px;"/>
            <ellipse cx="152.103" cy="153.986" rx="3.38" ry="1.851" style="fill:none;stroke:#f9df4b;stroke-width:0.98px;"/>
            <path d="M63.333,104.368c2.357,-1.29 5.721,-3.13 8.079,-4.419" style="fill:none;stroke:#f9df4b;stroke-width:0.98px;"/>
            <path d="M142.61,153.591c2.463,-1.347 5.608,-3.076 8.071,-4.424" style="fill:none;stroke:#f9df4b;stroke-width:0.98px;"/>
            <path d="M102.711,128.818c2.463,-1.347 5.609,-3.077 8.072,-4.424" style="fill:none;stroke:#f9df4b;stroke-width:0.98px;"/>
            <path d="M41.103,73.675l0,14.67" style="fill:none;stroke:#f9df4b;stroke-width:0.98px;"/>
            <path d="M275.523,108.039l0,14.733" style="fill:none;stroke:#f9df4b;stroke-width:0.98px;"/>
            <path d="M258.67,105.855l-0,6.395" style="fill:none;stroke:#f9df4b;stroke-width:0.98px;"/>
            <path d="M127.486,33.295l14.322,-0" style="fill:none;stroke:#f9df4b;stroke-width:1.23px;"/>
            <path d="M159.137,166.179c1.453,-0.274 2.907,-0.547 4.361,-0.821" style="fill:none;stroke:#f9df4b;stroke-width:0.98px;"/>
            <path d="M136.729,23.871l137.43,82.349" style="fill:none;stroke:#f9df4b;stroke-width:0.98px;"/>
            <path d="M274.11,109.92c-28.874,17.166 -57.749,34.332 -86.623,51.497" style="fill:none;stroke:#f9df4b;stroke-width:0.98px;"/>
            <path d="M258.67,112.25c-17.878,10.628 -35.755,21.256 -53.632,31.884" style="fill:none;stroke:#f9df4b;stroke-width:0.98px;"/>
            <path d="M190.78,167.105c-1.098,0.652 -2.195,1.305 -3.293,1.957m86.623,-51.497c-19.927,11.847 -39.854,23.693 -59.781,35.54" style="fill:none;stroke:#f9df4b;stroke-width:0.98px;"/>
            <path d="M190.78,167.105c0.231,-0.138 0.462,-0.275 0.693,-0.412" style="fill:none;stroke:#f9df4b;stroke-width:0.98px;"/>
            <path d="M194.385,167.132c6.316,-3.755 12.633,-7.494 18.949,-11.249" style="fill:none;stroke:#f9df4b;stroke-width:0.98px;"/>
            <path d="M192.473,163.923c6.281,-3.734 12.669,-7.515 18.95,-11.249" style="fill:none;stroke:#f9df4b;stroke-width:0.98px;"/>
            <path d="M191.47,166.688c-0.527,-0.886 -0.078,-2.125 1.003,-2.765" style="fill:none;stroke:#f9df4b;stroke-width:0.98px;"/>
            <path d="M194.385,167.132c-1.082,0.641 -2.388,0.441 -2.915,-0.444" style="fill:none;stroke:#f9df4b;stroke-width:0.98px;"/>
            <path d="M214.337,153.119c0.528,0.885 0.078,2.124 -1.003,2.764" style="fill:none;stroke:#f9df4b;stroke-width:0.98px;"/>
            <path d="M211.423,152.674c1.081,-0.64 2.387,-0.441 2.914,0.445" style="fill:none;stroke:#f9df4b;stroke-width:0.98px;"/>
            <path d="M60.592,86.762c-6.025,-3.741 -12.05,-7.482 -18.075,-11.223m138.447,85.962c-5.896,-3.661 -11.793,-7.322 -17.689,-10.983" style="fill:none;stroke:#f9df4b;stroke-width:0.98px;"/>
            <path d="M205.038,144.134c-43.743,-27.16 -87.486,-54.32 -131.229,-81.48" style="fill:none;stroke:#f9df4b;stroke-width:0.98px;"/>
            <path d="M184.362,112.722c-24.29,-15.081 -39.359,-24.339 -62.287,-38.58" style="fill:none;stroke:#f9df4b;stroke-width:0.98px;"/>
            <path d="M204.345,101.55c-22.819,-14.145 -37.443,-23.142 -61.996,-38.387" style="fill:none;stroke:#f9df4b;stroke-width:0.98px;"/>
            <path d="M258.541,105.775c-38.953,-24.187 -77.779,-48.294 -116.733,-72.48" style="fill:none;stroke:#f9df4b;stroke-width:1.23px;"/>
            <path d="M188.109,94.071c-10.224,-6.349 -20.446,-12.696 -30.67,-19.044" style="fill:none;stroke:#f9df4b;stroke-width:0.98px;"/>
            <path d="M177.035,100.126c-10.224,-6.348 -20.446,-12.695 -30.67,-19.043" style="fill:none;stroke:#f9df4b;stroke-width:0.98px;"/>
            <path d="M63.333,96.108c-6.939,-4.308 -13.877,-8.616 -20.816,-12.924m138.447,85.962c-6.662,-4.136 -20.577,-12.776 -20.871,-12.959" style="fill:none;stroke:#f9df4b;stroke-width:0.98px;"/>
            <path d="M160.093,155.011c-5.14,-3.191 -10.279,-6.382 -15.419,-9.573" style="fill:none;stroke:#f9df4b;stroke-width:0.98px;"/>
            <path d="M144.674,145.438l-2.064,-0.106l-20.197,-12.54" style="fill:none;stroke:#f9df4b;stroke-width:0.98px;"/>
            <path d="M122.413,131.616c0,-0 -10.724,-6.659 -17.637,-10.952" style="fill:none;stroke:#f9df4b;stroke-width:0.98px;"/>
            <path d="M104.776,120.664l-2.065,-0.105c0,-0 -18.975,-11.782 -18.983,-11.787" style="fill:none;stroke:#f9df4b;stroke-width:0.98px;"/>
            <path d="M83.728,107.596c-5.886,-3.655 -13.46,-8.358 -18.331,-11.382" style="fill:none;stroke:#f9df4b;stroke-width:0.98px;"/>
            <path d="M65.397,96.214l-2.064,-0.106" style="fill:none;stroke:#f9df4b;stroke-width:0.98px;"/>
            <path d="M42.466,71.811c29.258,-16.003 58.515,-32.005 87.773,-48.008" style="fill:none;stroke:#f9df4b;stroke-width:0.98px;"/>
            <path d="M94.479,99.523c1.343,-0.734 2.686,-1.469 4.029,-2.203" style="fill:none;stroke:#f9df4b;stroke-width:0.98px;"/>
            <path d="M98.048,101.727c1.343,-0.735 2.686,-1.469 4.028,-2.204" style="fill:none;stroke:#f9df4b;stroke-width:0.98px;"/>
            <path d="M134.352,124.28c1.343,-0.734 2.68,-1.472 4.023,-2.206" style="fill:none;stroke:#f9df4b;stroke-width:0.98px;"/>
            <path d="M137.949,126.514c1.342,-0.735 2.685,-1.469 4.028,-2.204" style="fill:none;stroke:#f9df4b;stroke-width:0.98px;"/>
            <path d="M73.944,62.576c17.892,-9.787 35.649,-19.495 53.542,-29.281" style="fill:none;stroke:#f9df4b;stroke-width:1.23px;"/>
            <path d="M146.365,81.083c3.693,-2.019 7.383,-4.038 11.074,-6.056" style="fill:none;stroke:#f9df4b;stroke-width:0.98px;"/>
            <path d="M177.035,100.126c3.692,-2.019 7.383,-4.037 11.074,-6.055" style="fill:none;stroke:#f9df4b;stroke-width:0.98px;"/>
            <path d="M168.719,82.031c-2.441,2.747 -5.577,5.181 -9.243,7.193" style="fill:none;stroke:#f9df4b;stroke-width:0.98px;"/>
            <path d="M169.459,95.422c2.606,-2.687 6.093,-4.953 10.183,-6.609" style="fill:none;stroke:#f9df4b;stroke-width:0.98px;"/>
            <path d="M180.964,161.501c1.369,0.827 4.373,1.209 6.523,-0.084" style="fill:none;stroke:#f9df4b;stroke-width:0.98px;"/>
            <path d="M180.964,169.146c1.369,0.827 4.373,1.209 6.523,-0.084" style="fill:none;stroke:#f9df4b;stroke-width:0.98px;"/>
            <path d="M274.159,106.22c1.846,1.092 1.808,2.587 -0.049,3.7" style="fill:none;stroke:#f9df4b;stroke-width:0.98px;"/>
            <path d="M275.523,115.684c0,0.657 -0.473,1.318 -1.413,1.881" style="fill:none;stroke:#f9df4b;stroke-width:0.98px;"/>
            <path d="M42.466,71.811c-1.845,1.091 -1.806,2.615 0.051,3.728" style="fill:none;stroke:#f9df4b;stroke-width:0.98px;"/>
            <path d="M41.103,81.288c0,0.664 0.474,1.333 1.414,1.896" style="fill:none;stroke:#f9df4b;stroke-width:0.98px;"/>
            <path d="M130.239,23.803c1.369,-0.827 4.34,-1.224 6.49,0.068" style="fill:none;stroke:#f9df4b;stroke-width:0.98px;"/>
            <path d="M274.11,124.622c-28.874,17.166 -57.749,34.332 -86.623,51.497" style="fill:none;stroke:#f9df4b;stroke-width:0.98px;"/>
            <path d="M61.023,101.731c-6.169,-3.83 -12.337,-7.66 -18.506,-11.49m138.447,85.962c-5.822,-3.615 -11.644,-7.23 -17.466,-10.845" style="fill:none;stroke:#f9df4b;stroke-width:0.98px;"/>
            <path d="M159.137,166.179c-32.016,-19.879 -96.902,-60.167 -97.33,-60.432" style="fill:none;stroke:#f9df4b;stroke-width:0.98px;"/>
            <path d="M61.807,105.747c-0.261,-1.339 -0.523,-2.677 -0.784,-4.016" style="fill:none;stroke:#f9df4b;stroke-width:0.98px;"/>
            <path d="M180.964,176.203c1.369,0.827 4.373,1.209 6.523,-0.084" style="fill:none;stroke:#f9df4b;stroke-width:0.98px;"/>
            <path d="M275.523,122.741c0,0.657 -0.473,1.318 -1.413,1.881" style="fill:none;stroke:#f9df4b;stroke-width:0.98px;"/>
            <path d="M41.103,88.345c0,0.664 0.474,1.333 1.414,1.896" style="fill:none;stroke:#f9df4b;stroke-width:0.98px;"/>
            <ellipse cx="132.527" cy="68.859" rx="13.714" ry="8.165" style="fill:none;stroke:#f9df4b;stroke-width:0.98px;"/>
            <path d="M122.381,74.349c-0.557,-0.784 -0.866,-1.646 -0.866,-2.55c0,-3.619 4.935,-6.556 11.012,-6.556c6.078,-0 11.012,2.937 11.012,6.556c-0,0.904 -0.308,1.766 -0.866,2.55" style="fill:none;stroke:#f9df4b;stroke-width:0.98px;"/>
            <path d="M121.992,73.709c1.376,-2.687 5.575,-4.644 10.535,-4.644c4.96,0 9.159,1.957 10.535,4.644" style="fill:none;stroke:#f9df4b;stroke-width:0.98px;"/>
            <path d="M184.184,112.598c-0.417,-0.691 -0.644,-1.436 -0.644,-2.212c0,-3.619 4.934,-6.556 11.012,-6.556c6.078,-0 11.012,2.937 11.012,6.556c-0,0.816 -0.251,1.597 -0.709,2.317" style="fill:none;stroke:#f9df4b;stroke-width:0.98px;"/>
            <path d="M184.017,112.296c1.376,-2.687 5.575,-4.644 10.535,-4.644c4.959,0 9.157,1.956 10.534,4.642" style="fill:none;stroke:#f9df4b;stroke-width:0.98px;"/>
            <ellipse cx="194.596" cy="107.29" rx="13.714" ry="8.165" style="fill:none;stroke:#f9df4b;stroke-width:0.98px;"/>
            <g>
                <path d="M93.666,74.983l15.062,0" style="fill:none;stroke:#f9df4b;stroke-width:0.61px;"/>
                <path d="M96.034,76.453l28.073,0" style="fill:none;stroke:#f9df4b;stroke-width:0.61px;"/>
                <path d="M98.402,77.923l29.765,0" style="fill:none;stroke:#f9df4b;stroke-width:0.61px;"/>
                <path d="M100.77,79.394l29.767,-0" style="fill:none;stroke:#f9df4b;stroke-width:0.61px;"/>
                <path d="M173.294,82.334l12.327,0m-80.116,0l29.777,0" style="fill:none;stroke:#f9df4b;stroke-width:0.61px;"/>
                <path d="M103.138,80.864l29.771,-0" style="fill:none;stroke:#f9df4b;stroke-width:0.61px;"/>
                <path d="M175.671,83.804l25.329,0m-93.127,0l29.782,0" style="fill:none;stroke:#f9df4b;stroke-width:0.61px;"/>
                <path d="M178.049,85.274l38.329,0m-91.183,0l14.835,0" style="fill:none;stroke:#f9df4b;stroke-width:0.61px;"/>
                <path d="M182.803,88.215l47.457,-0" style="fill:none;stroke:#f9df4b;stroke-width:0.61px;"/>
                <path d="M180.426,86.745l47.466,-0" style="fill:none;stroke:#f9df4b;stroke-width:0.61px;"/>
                <path d="M185.181,89.685l47.447,0" style="fill:none;stroke:#f9df4b;stroke-width:0.61px;"/>
                <path d="M202.088,92.625l35.275,0" style="fill:none;stroke:#f9df4b;stroke-width:0.61px;"/>
                <path d="M187.557,91.155l47.438,0" style="fill:none;stroke:#f9df4b;stroke-width:0.61px;"/>
                <path d="M217.466,94.096l22.265,-0" style="fill:none;stroke:#f9df4b;stroke-width:0.61px;"/>
                <path d="M232.845,95.566l9.254,-0" style="fill:none;stroke:#f9df4b;stroke-width:0.61px;"/>
            </g>
        </g>
        <g>
            <path d="M311.788,167.939c-3.435,0 -5.926,-0.565 -7.471,-1.695c-1.546,-1.13 -2.319,-3.066 -2.319,-5.806c-0,-2.534 0.687,-6.164 2.061,-10.891c1.305,-4.624 2.679,-8.185 4.122,-10.686c1.443,-2.5 3.169,-4.272 5.179,-5.317c2.009,-1.045 4.594,-1.567 7.755,-1.567c3.126,0 5.341,0.394 6.647,1.182c1.305,0.788 1.958,2.175 1.958,4.161c-0,0.856 -0.138,2.004 -0.413,3.442l-4.173,0c0.068,-0.822 0.103,-1.387 0.103,-1.695c-0,-1.267 -0.292,-2.141 -0.876,-2.62c-0.584,-0.48 -1.615,-0.72 -3.092,-0.72c-2.301,0 -4.208,0.437 -5.719,1.311c-1.512,0.873 -2.826,2.354 -3.942,4.443c-1.117,2.09 -2.224,5.052 -3.324,8.888c-1.168,4.076 -1.752,7.073 -1.752,8.991c0,1.746 0.43,2.988 1.289,3.724c0.858,0.737 2.232,1.105 4.122,1.105c2.301,-0 4.027,-0.334 5.178,-1.002c1.151,-0.668 2.156,-1.927 3.015,-3.776l4.276,0c-0.824,2.226 -1.752,3.947 -2.782,5.163c-1.031,1.216 -2.31,2.081 -3.839,2.595c-1.529,0.513 -3.53,0.77 -6.003,0.77Z" style="fill:#dfe1ec;fill-rule:nonzero;"/>
            <path d="M334.099,167.939c-2.542,0 -4.371,-0.325 -5.487,-0.976c-1.117,-0.651 -1.675,-1.781 -1.675,-3.391c0,-1.027 0.241,-2.363 0.722,-4.007c0.721,-2.432 1.597,-4.281 2.627,-5.548c1.031,-1.268 2.448,-2.167 4.251,-2.697c1.804,-0.531 4.286,-0.797 7.446,-0.797l5.101,0l0.413,-1.49c0.309,-1.13 0.463,-2.055 0.463,-2.774c0,-0.993 -0.343,-1.669 -1.03,-2.029c-0.687,-0.36 -1.872,-0.54 -3.556,-0.54c-2.267,0 -3.907,0.249 -4.92,0.745c-1.014,0.497 -1.761,1.465 -2.242,2.903l-4.225,0c0.584,-1.986 1.297,-3.502 2.138,-4.547c0.842,-1.044 1.984,-1.781 3.427,-2.209c1.443,-0.428 3.418,-0.642 5.925,-0.642c3.126,0 5.368,0.385 6.725,1.156c1.357,0.771 2.035,2.081 2.035,3.93c0,1.199 -0.258,2.672 -0.773,4.418l-5.204,17.981l-3.916,0l1.082,-3.442l-0.361,0c-1.305,1.507 -2.585,2.543 -3.839,3.108c-1.253,0.566 -2.962,0.848 -5.127,0.848Zm-2.215,-8.014c-0.241,0.822 -0.361,1.524 -0.361,2.106c0,0.788 0.283,1.327 0.85,1.618c0.567,0.292 1.555,0.437 2.963,0.437c1.992,0 3.633,-0.291 4.921,-0.873c1.288,-0.583 2.387,-1.584 3.298,-3.006c0.91,-1.421 1.726,-3.416 2.447,-5.985l-5.616,0c-2.577,0 -4.483,0.42 -5.72,1.259c-1.236,0.839 -2.164,2.32 -2.782,4.444Z" style="fill:#dfe1ec;fill-rule:nonzero;"/>
            <path d="M363.058,167.939c-3.47,0 -5.952,-0.368 -7.446,-1.104c-1.494,-0.737 -2.241,-1.995 -2.241,-3.776c-0,-0.891 0.189,-2.038 0.566,-3.442l4.226,0.41c-0.138,0.548 -0.206,1.079 -0.206,1.593c-0,0.993 0.412,1.661 1.236,2.004c0.825,0.342 2.267,0.513 4.329,0.513c2.473,0 4.276,-0.316 5.41,-0.95c1.134,-0.634 1.941,-1.755 2.422,-3.365c0.137,-0.548 0.206,-0.925 0.206,-1.13c-0,-0.856 -0.447,-1.541 -1.34,-2.055c-0.893,-0.514 -2.49,-1.045 -4.792,-1.593c-2.851,-0.582 -4.886,-1.284 -6.106,-2.106c-1.219,-0.822 -1.829,-1.952 -1.829,-3.391c-0,-0.651 0.137,-1.473 0.412,-2.466c0.55,-1.918 1.262,-3.382 2.138,-4.392c0.876,-1.011 2.087,-1.721 3.633,-2.132c1.546,-0.411 3.659,-0.617 6.338,-0.617c3.263,0 5.582,0.351 6.956,1.053c1.374,0.702 2.061,1.91 2.061,3.622c0,0.582 -0.12,1.439 -0.36,2.569l-4.123,-0.411c0.035,-0.206 0.052,-0.48 0.052,-0.822c-0,-0.891 -0.344,-1.481 -1.031,-1.772c-0.687,-0.292 -1.923,-0.437 -3.71,-0.437c-2.542,-0 -4.397,0.308 -5.565,0.925c-1.168,0.616 -1.975,1.712 -2.421,3.288c-0.069,0.205 -0.103,0.376 -0.103,0.513c-0,0.617 0.489,1.173 1.468,1.67c0.979,0.497 2.74,1.105 5.282,1.824c2.679,0.685 4.577,1.464 5.693,2.337c1.117,0.874 1.675,2.03 1.675,3.468c0,0.822 -0.154,1.747 -0.464,2.774c-0.584,1.987 -1.322,3.502 -2.215,4.547c-0.893,1.044 -2.13,1.781 -3.71,2.209c-1.58,0.428 -3.727,0.642 -6.441,0.642Z" style="fill:#dfe1ec;fill-rule:nonzero;"/>
            <path d="M389.337,167.939c-3.47,0 -5.952,-0.368 -7.446,-1.104c-1.494,-0.737 -2.241,-1.995 -2.241,-3.776c-0,-0.891 0.189,-2.038 0.566,-3.442l4.226,0.41c-0.138,0.548 -0.206,1.079 -0.206,1.593c-0,0.993 0.412,1.661 1.236,2.004c0.825,0.342 2.267,0.513 4.328,0.513c2.474,0 4.277,-0.316 5.411,-0.95c1.133,-0.634 1.941,-1.755 2.422,-3.365c0.137,-0.548 0.206,-0.925 0.206,-1.13c-0,-0.856 -0.447,-1.541 -1.34,-2.055c-0.893,-0.514 -2.49,-1.045 -4.792,-1.593c-2.851,-0.582 -4.887,-1.284 -6.106,-2.106c-1.219,-0.822 -1.829,-1.952 -1.829,-3.391c-0,-0.651 0.137,-1.473 0.412,-2.466c0.55,-1.918 1.262,-3.382 2.138,-4.392c0.876,-1.011 2.087,-1.721 3.633,-2.132c1.546,-0.411 3.658,-0.617 6.338,-0.617c3.263,0 5.582,0.351 6.956,1.053c1.374,0.702 2.061,1.91 2.061,3.622c0,0.582 -0.12,1.439 -0.361,2.569l-4.122,-0.411c0.035,-0.206 0.052,-0.48 0.052,-0.822c-0,-0.891 -0.344,-1.481 -1.031,-1.772c-0.687,-0.292 -1.923,-0.437 -3.71,-0.437c-2.542,-0 -4.397,0.308 -5.565,0.925c-1.168,0.616 -1.975,1.712 -2.421,3.288c-0.069,0.205 -0.103,0.376 -0.103,0.513c-0,0.617 0.489,1.173 1.468,1.67c0.979,0.497 2.74,1.105 5.282,1.824c2.679,0.685 4.577,1.464 5.693,2.337c1.117,0.874 1.675,2.03 1.675,3.468c0,0.822 -0.155,1.747 -0.464,2.774c-0.584,1.987 -1.322,3.502 -2.215,4.547c-0.894,1.044 -2.13,1.781 -3.71,2.209c-1.581,0.428 -3.728,0.642 -6.441,0.642Z" style="fill:#dfe1ec;fill-rule:nonzero;"/>
            <path d="M415.925,167.939c-3.367,0 -5.771,-0.462 -7.214,-1.387c-1.443,-0.925 -2.164,-2.552 -2.164,-4.881c-0,-1.986 0.498,-4.726 1.494,-8.219c1.065,-3.631 2.181,-6.388 3.349,-8.272c1.168,-1.883 2.611,-3.219 4.329,-4.007c1.717,-0.788 4.002,-1.181 6.853,-1.181c3.091,-0 5.316,0.453 6.673,1.361c1.356,0.908 2.035,2.509 2.035,4.803c-0,2.227 -0.653,5.48 -1.958,9.762l-17.777,-0c-0.447,1.781 -0.67,3.27 -0.67,4.469c0,1.404 0.387,2.38 1.159,2.928c0.773,0.548 2.087,0.822 3.942,0.822c1.89,0 3.324,-0.265 4.303,-0.796c0.979,-0.531 1.932,-1.55 2.86,-3.057l4.482,0c-0.996,2.055 -1.983,3.622 -2.962,4.701c-0.979,1.079 -2.147,1.841 -3.504,2.286c-1.357,0.446 -3.1,0.668 -5.23,0.668Zm10.305,-15.875c0.516,-2.02 0.773,-3.596 0.773,-4.726c0,-1.301 -0.352,-2.218 -1.056,-2.748c-0.704,-0.531 -1.864,-0.797 -3.478,-0.797c-1.855,0 -3.35,0.24 -4.483,0.719c-1.134,0.48 -2.104,1.319 -2.911,2.518c-0.808,1.199 -1.589,2.911 -2.345,5.137l13.5,-0.103Z" style="fill:#dfe1ec;fill-rule:nonzero;"/>
            <path d="M443.083,167.991c-2.37,-0 -4.053,-0.334 -5.049,-1.002c-0.997,-0.668 -1.495,-1.721 -1.495,-3.16c0,-1.027 0.292,-2.586 0.876,-4.675l4.226,-14.744l-7.008,-0l2.112,-3.802l6.184,0l1.803,-6.781l4.38,-0.925l-2.164,7.706l9.429,0l-1.082,3.802l-9.429,-0l-4.328,14.95c-0.344,1.13 -0.516,1.986 -0.516,2.568c0,0.754 0.292,1.302 0.876,1.644c0.584,0.343 1.598,0.514 3.04,0.514c1.168,0 3.075,-0.171 5.72,-0.514l-0.618,3.905c-2.852,0.342 -5.17,0.514 -6.957,0.514Z" style="fill:#dfe1ec;fill-rule:nonzero;"/>
            <path d="M467.356,167.991c-2.37,-0 -4.053,-0.334 -5.049,-1.002c-0.997,-0.668 -1.495,-1.721 -1.495,-3.16c0,-1.027 0.292,-2.586 0.876,-4.675l4.226,-14.744l-7.008,-0l2.112,-3.802l6.184,0l1.803,-6.781l4.38,-0.925l-2.164,7.706l9.429,0l-1.082,3.802l-9.429,-0l-4.328,14.95c-0.344,1.13 -0.516,1.986 -0.516,2.568c0,0.754 0.292,1.302 0.876,1.644c0.584,0.343 1.598,0.514 3.04,0.514c1.168,0 3.075,-0.171 5.72,-0.514l-0.618,3.905c-2.852,0.342 -5.17,0.514 -6.957,0.514Z" style="fill:#dfe1ec;fill-rule:nonzero;"/>
            <path d="M488.744,167.939c-3.367,0 -5.771,-0.462 -7.214,-1.387c-1.443,-0.925 -2.164,-2.552 -2.164,-4.881c-0,-1.986 0.498,-4.726 1.494,-8.219c1.065,-3.631 2.181,-6.388 3.349,-8.272c1.168,-1.883 2.611,-3.219 4.329,-4.007c1.717,-0.788 4.002,-1.181 6.853,-1.181c3.091,-0 5.316,0.453 6.673,1.361c1.357,0.908 2.035,2.509 2.035,4.803c-0,2.227 -0.653,5.48 -1.958,9.762l-17.777,-0c-0.447,1.781 -0.67,3.27 -0.67,4.469c0,1.404 0.387,2.38 1.16,2.928c0.772,0.548 2.086,0.822 3.941,0.822c1.89,0 3.324,-0.265 4.303,-0.796c0.979,-0.531 1.932,-1.55 2.86,-3.057l4.483,0c-0.997,2.055 -1.984,3.622 -2.963,4.701c-0.979,1.079 -2.147,1.841 -3.504,2.286c-1.357,0.446 -3.1,0.668 -5.23,0.668Zm10.305,-15.875c0.516,-2.02 0.773,-3.596 0.773,-4.726c0,-1.301 -0.352,-2.218 -1.056,-2.748c-0.704,-0.531 -1.864,-0.797 -3.478,-0.797c-1.855,0 -3.349,0.24 -4.483,0.719c-1.134,0.48 -2.104,1.319 -2.911,2.518c-0.808,1.199 -1.589,2.911 -2.345,5.137l13.5,-0.103Z" style="fill:#dfe1ec;fill-rule:nonzero;"/>
        </g>
    </g>
</svg>
