<?xml version="1.0" encoding="UTF-8" standalone="no"?>
<!DOCTYPE svg PUBLIC "-//W3C//DTD SVG 1.1//EN" "http://www.w3.org/Graphics/SVG/1.1/DTD/svg11.dtd">
<svg width="100%" height="100%" viewBox="0 0 600 600" version="1.1" xmlns="http://www.w3.org/2000/svg" xmlns:xlink="http://www.w3.org/1999/xlink" xml:space="preserve" xmlns:serif="http://www.serif.com/" style="fill-rule:evenodd;clip-rule:evenodd;stroke-linecap:round;stroke-linejoin:round;stroke-miterlimit:1.5;">
    <rect id="Artboard2" x="-0" y="0" width="600" height="600" style="fill:none;"/>
    <g id="Artboard21" serif:id="Artboard2">
        <path d="M235.384,201.214c9.646,-0 18.368,2.378 24.612,6.206c6.033,3.698 9.752,8.749 9.752,14.315c-0,11.325 -15.398,20.521 -34.364,20.521c-10.489,-0 -19.886,-2.812 -26.191,-7.242c-5.097,-3.58 -8.173,-8.217 -8.173,-13.279c-0,-11.326 15.398,-20.521 34.364,-20.521Z" style="fill:none;stroke:#0a0b11;stroke-width:3.44px;"/>
        <path d="M208.985,233.925c3.448,-6.753 13.969,-11.671 26.399,-11.671c12.429,0 22.95,4.918 26.399,11.671" style="fill:none;stroke:#0a0b11;stroke-width:3.44px;"/>
        <path d="M364.41,330.907c3.448,-6.753 13.97,-11.671 26.399,-11.671c12.428,-0 22.947,4.916 26.398,11.667" style="fill:none;stroke:#0a0b11;stroke-width:3.44px;"/>
        <ellipse cx="390.92" cy="318.325" rx="34.364" ry="20.521" style="fill:none;stroke:#0a0b11;stroke-width:3.44px;"/>
        <path d="M260.374,207.655c61.3,38.174 97.911,60.766 154.974,96.243c-6.231,-3.762 -14.877,-6.094 -24.428,-6.094c-18.966,0 -34.364,9.195 -34.364,20.521c-0,5.241 3.296,10.025 8.717,13.653c-59.849,-37.271 -97.36,-60.391 -153.219,-95.182c6.129,3.388 14.328,5.46 23.33,5.46c18.966,-0 34.364,-9.196 34.364,-20.521c-0,-5.449 -3.564,-10.404 -9.374,-14.08Zm-48.32,29.141c-1.012,-0.559 -1.968,-1.154 -2.861,-1.782c0.959,0.598 1.912,1.192 2.861,1.782Zm47.942,-29.376c0.127,0.078 0.253,0.156 0.378,0.235m105.113,124.465c-0.071,-0.047 -0.143,-0.094 -0.214,-0.142" style="fill:#2d2f38;stroke:#2d2f38;stroke-width:3.44px;"/>
        <path d="M310.025,417.226l-246.554,-153.543l-8.347,3.048l-45.292,-28.206c-4.653,-2.797 -4.752,-6.628 -0.128,-9.37l219.945,-120.66c3.431,-2.079 10.877,-3.077 16.265,0.172l344.379,206.97c4.625,2.742 4.531,6.501 -0.122,9.299l-217.066,129.429c-5.387,3.249 -12.914,2.29 -16.345,0.211l-44.326,-27.605c15.695,-15.751 31.39,-31.768 47.085,-47.54l-8.567,-3.279l-40.927,41.074Zm-221.78,-211.086l328.84,204.786l134.394,-80.134l-0,-16.074l-292.838,-182.367l-35.89,0l-134.506,73.789Z" style="fill:#2d2f38;stroke:#2d2f38;stroke-width:4.3px;"/>
        <path d="M6.289,233.84c0.038,1.643 1.226,3.292 3.543,4.685l45.292,28.206l8.347,-3.048l246.554,153.543l2.409,9.745l44.326,27.605c3.431,2.079 10.958,3.038 16.345,-0.211l217.066,-129.429c2.353,-1.415 3.541,-3.076 3.541,-4.727l-0,36.95c-0,0.026 -0.001,0.052 -0.001,0.078c-0.036,1.625 -1.223,3.257 -3.54,4.649l-217.066,129.429c-5.387,3.25 -12.914,2.29 -16.345,0.211l-43.768,-27.256l-10.929,2.062l-243.893,-151.886l-1.965,-10.092l-46.373,-28.878c-2.355,-1.416 -3.544,-3.097 -3.544,-4.767l0.001,-36.869Zm298.17,185.274l-43.809,-27.282l-0,42.863l43.809,27.282l-0,-42.863Zm-163.737,-91.064l-12.563,-7.823l0,22.17l12.563,7.824l0,-22.171Zm242.364,139.561c1.322,2.225 4.595,2.726 7.304,1.117c15.828,-9.437 31.656,-18.835 47.484,-28.273c2.721,-1.613 3.836,-4.722 2.514,-6.948c-1.322,-2.226 -4.594,-2.726 -7.303,-1.118c-15.74,9.385 -31.746,18.889 -47.485,28.274c-2.709,1.609 -3.835,4.722 -2.514,6.948Zm-173.046,-107.296l-49.371,-30.746l0,42.863l49.371,30.745l0,-42.862Zm30.641,29.985l-11.086,-6.904l0,22.171l11.086,6.903l-0,-22.17Zm-127.581,-90.356l-51.107,-31.826l-0,42.862l51.107,31.827l-0,-42.863Z" style="fill:#2d2f38;stroke:#2d2f38;stroke-width:4.3px;"/>
    </g>
</svg>
